<svg height="464pt" viewBox="0 0 464 464" width="464pt" xmlns="http://www.w3.org/2000/svg"><path d="m64 400h160v-16h-144v-176h224v96h144v96h16v-224h-400zm0 0"/><path d="m240 464h192v-144h-192zm176-16h-16v-16h16zm-160-112h160v16h-160zm0 32h160v16h-160zm0 32h160v16h-160zm0 32h128v16h-128zm0 0"/><path d="m416 64h-416v288h48v-256h368zm0 0"/><path d="m416 0h-416v48h416zm-384 32h-16v-16h16zm32 0h-16v-16h16zm32 0h-16v-16h16zm0 0"/><path d="m288 224h-192v144h128v-64h64zm-80 128h-96v-16h96zm0-32h-96v-16h96zm64-32h-160v-16h160zm0-32h-160v-16h160zm0 0"/><path d="m64 112v48h400v-48zm32 32h-16v-16h16zm32 0h-16v-16h16zm32 0h-16v-16h16zm0 0"/></svg>