<svg viewBox="0 0 512 512" xmlns="http://www.w3.org/2000/svg"><path d="m217 427.652344h-32.511719l-8.230469-8.230469 292.597657-294.71875c27.824219-28.027344 43.144531-65.210937 43.144531-104.703125 0-11.046875-8.953125-20-20-20h-1.859375c-39.597656 0-76.851563 15.390625-104.902344 43.339844l-293.050781 292.011718-8.210938-8.210937v-32.140625c0-11.046875-8.953124-20-20-20-11.046874 0-20 8.953125-20 20v40.425781c0 5.304688 2.109376 10.390625 5.859376 14.140625l42.324218 42.328125-41.542968 41.542969c-3.382813-.929688-6.9375-1.4375-10.617188-1.4375-22.089844 0-40 17.910156-40 40s17.910156 40 40 40 40-17.910156 40-40c0-3.484375-.449219-6.867188-1.285156-10.089844l41.730468-41.730468 41.617188 41.617187c3.75 3.75 8.839844 5.855469 14.144531 5.855469h40.792969c11.046875 0 20-8.953125 20-20 0-11.042969-8.953125-20-20-20zm196.472656-355.976563c15.617188-15.558593 35.128906-25.792969 56.332032-29.785156-4.183594 20.53125-14.246094 39.429687-29.34375 54.640625l-292.488282 294.605469-27.503906-27.503907zm-370.503906 52.949219c-27.695312-27.972656-42.96875-65.105469-42.96875-104.523438v-.101562c0-11.046875 8.953125-20 20-20h1.757812c39.671876 0 76.976563 15.441406 105.042969 43.480469l90.34375 90.378906c7.808594 7.8125 7.808594 20.476563-.003906 28.285156-7.8125 7.808594-20.476563 7.804688-28.285156-.003906l-90.335938-90.371094c-15.605469-15.589843-35.125-25.851562-56.339843-29.863281 4.164062 20.519531 14.191406 39.40625 29.25 54.613281l90.929687 92.335938c7.753906 7.871093 7.65625 20.535156-.214844 28.285156-3.898437 3.835937-8.964843 5.75-14.03125 5.75-5.171875 0-10.339843-1.992187-14.253906-5.96875zm469.03125 347.375c0 22.089844-17.910156 40-40 40s-40-17.910156-40-40c0-3.484375.449219-6.867188 1.285156-10.089844l-41.730468-41.730468-41.617188 41.617187c-3.75 3.75-8.839844 5.855469-14.144531 5.855469h-39.792969c-11.046875 0-20-8.953125-20-20 0-11.042969 8.953125-20 20-20h31.511719l8.246093-8.246094-39.960937-40.328125c-7.777344-7.847656-7.71875-20.511719.125-28.285156 7.847656-7.773438 20.511719-7.71875 28.285156.128906l39.835938 40.199219 27.355469-27.355469-41.382813-40.46875c-7.894531-7.722656-8.035156-20.386719-.3125-28.28125 7.722656-7.898437 20.386719-8.039063 28.28125-.316406l41.699219 40.78125 8.339844-8.339844v-32.140625c0-11.046875 8.953124-20 20-20 11.046874 0 20 8.953125 20 20v40.425781c0 5.304688-2.105469 10.390625-5.855469 14.140625l-42.328125 42.328125 41.542968 41.542969c3.382813-.929688 6.9375-1.4375 10.617188-1.4375 22.089844 0 40 17.910156 40 40zm0 0"/></svg>