<svg height="512pt" viewBox="0 -77 512 512" width="512pt" xmlns="http://www.w3.org/2000/svg"><path d="m512 0h-512v180h35.816406c-13.410156 17.625-12.085937 42.953125 4.003906 59.039062 8.140626 8.144532 18.652344 12.507813 29.332032 13.09375.585937 10.679688 4.949218 21.191407 13.09375 29.335938 8.140625 8.140625 18.652344 12.503906 29.332031 13.089844.585937 10.679687 4.949219 21.191406 13.09375 29.335937 14.945313 14.945313 37.328125 16.921875 54.160156 7.265625 2.183594 5.066406 5.34375 9.8125 9.480469 13.945313 17.542969 17.546875 46.09375 17.546875 63.636719 0l4.058593-4.054688.171876.175781c17.375 17.371094 45.683593 17.371094 63.109374.003907l.441407-.441407c3.707031-3.691406 6.683593-7.921874 8.855469-12.515624 17.558593 12.980468 42.570312 11.597656 58.546874-4.382813 7.914063-7.910156 12.511719-18.253906 13.109376-29.339844 10.675781-.589843 21.179687-4.949219 29.316406-13.085937 8.140625-8.136719 12.496094-18.640625 13.085937-29.316406 11.085938-.597657 21.429688-5.195313 29.339844-13.109376 16.1875-16.183593 17.417969-41.472656 4.011719-59.042968h36.003906zm-450.96875 217.828125c-5.847656-5.847656-5.847656-15.363281 0-21.214844l16.613281-16.613281h17.1875c4.296875 4.265625 8.625 8.570312 12.65625 12.585938l-25.242187 25.242187c-5.863282 5.863281-15.351563 5.863281-21.214844 0zm42.425781 42.425781c-5.847656-5.847656-5.847656-15.363281 0-21.210937l25.269531-25.269531 21.210938 21.214843-25.265625 25.265625c-5.851563 5.847656-15.367187 5.847656-21.214844 0zm63.640625 42.425782c-5.863281 5.863281-15.351562 5.863281-21.210937 0-5.851563-5.847657-5.851563-15.363282 0-21.210938l25.265625-25.269531 21.214844 21.214843c-34.410157 34.410157-22.335938 22.332032-25.269532 25.265626zm63.640625 21.214843c-5.851562 5.847657-15.367187 5.847657-21.214843 0-5.835938-5.835937-5.847657-15.324219-.039063-21.175781l4.09375-4.09375 21.210937 21.214844zm220.035157-106.066406c-5.863282 5.859375-15.351563 5.863281-21.214844 0l-82.277344-82.277344-21.214844 21.210938 82.28125 82.277343c5.847656 5.851563 5.847656 15.367188 0 21.214844-5.851562 5.847656-15.367187 5.847656-21.214844 0l-82.277343-82.277344-21.214844 21.210938 82.28125 82.28125c5.859375 5.863281 5.859375 15.347656 0 21.214844-5.851563 5.84375-15.367187 5.847656-21.214844 0 0 0-69.699219-69.703125-82.277343-82.28125l-21.214844 21.214844 57.289062 57.289062c5.78125 5.78125 5.722656 14.984375.070313 20.621094l-.460938.457031c-5.730469 5.710937-15.023437 5.722656-20.71875.03125-78.488281-78.40625-92.390625-92.574219-170.210937-170.015625h-77.183594v-120h130.367188l-67.515626 67.515625 31.820313 31.820313c17.582031 17.585937 46.050781 17.589843 63.640625 0l36.546875-36.546876c38.316406 27.488282 89.636719 31.894532 132.433594 10.347657l93.480469 93.476562c5.859374 5.863281 5.863281 15.351563 0 21.214844zm31.226562-67.828125h-35.414062l-84.554688-84.554688-10.121094 6.328126c-37.023437 23.15625-85.605468 18.9375-118.140625-10.257813l-10.578125-9.488281-56.09375 56.09375c-5.863281 5.863281-15.351562 5.863281-21.210937 0l-10.609375-10.605469 67.515625-67.515625h279.207031zm0 0"/></svg>