<svg height="496pt" viewBox="0 0 496 496" width="496pt" xmlns="http://www.w3.org/2000/svg"><path d="m272 280h176c1.816406 0 3.574219-.617188 5-1.753906l40-32c1.894531-1.519532 3-3.8125 3-6.246094s-1.105469-4.726562-3-6.246094l-40-32c-1.425781-1.136718-3.183594-1.753906-5-1.753906h-176v-16h176c1.816406 0 3.574219-.617188 5-1.753906l40-32c1.894531-1.519532 3-3.8125 3-6.246094s-1.105469-4.726562-3-6.246094l-40-32c-1.425781-1.136718-3.183594-1.753906-5-1.753906h-176v-14.496094c14.320312-8.3125 24-23.785156 24-41.503906 0-26.472656-21.527344-48-48-48s-48 21.527344-48 48c0 17.71875 9.679688 33.191406 24 41.503906v14.496094h-176c-1.816406 0-3.574219.617188-5 1.753906l-40 32c-1.894531 1.519532-3 3.8125-3 6.246094s1.105469 4.726562 3 6.246094l40 32c1.425781 1.136718 3.183594 1.753906 5 1.753906h176v112h-176c-1.816406 0-3.574219.617188-5 1.753906l-40 32c-1.894531 1.519532-3 3.8125-3 6.246094s1.105469 4.726562 3 6.246094l40 32c1.425781 1.136718 3.183594 1.753906 5 1.753906h176v34.128906l-20.6875-9.410156c-2.105469-.949219-4.511719-.949219-6.617188 0l-174.421874 79.28125h-22.273438v16h496v-16h-14.023438l-150.25-79.078125c-2.855468-1.507813-6.351562-1.136719-8.847656.925781l-41.320312 34.433594-9.558594-4.335938zm173.191406-64 30 24-30 24h-173.191406v-48zm0-96 30 24-30 24h-173.191406v-48zm-197.191406-104c17.648438 0 32 14.351562 32 32s-14.351562 32-32 32-32-14.351562-32-32 14.351562-32 32-32zm-197.191406 152-30-24 30-24h173.191406v48zm0 192-30-24 30-24h173.191406v48zm189.191406 8v-272.71875c2.609375.4375 5.273438.71875 8 .71875s5.390625-.28125 8-.71875v329.390625l-16-7.273437zm-40 48.792969 139.070312 63.207031h-278.140624zm129.007812.773437 118.617188 62.433594h-69.898438l-79.992187-36.359375zm0 0"/><path d="m192 328h16v16h-16zm0 0"/><path d="m160 328h16v16h-16zm0 0"/><path d="m128 328h16v16h-16zm0 0"/><path d="m192 136h16v16h-16zm0 0"/><path d="m160 136h16v16h-16zm0 0"/><path d="m128 136h16v16h-16zm0 0"/><path d="m352 136h16v16h-16zm0 0"/><path d="m320 136h16v16h-16zm0 0"/><path d="m288 136h16v16h-16zm0 0"/><path d="m352 232h16v16h-16zm0 0"/><path d="m320 232h16v16h-16zm0 0"/><path d="m288 232h16v16h-16zm0 0"/></svg>