<svg height="512pt" viewBox="0 0 512 512" width="512pt" xmlns="http://www.w3.org/2000/svg"><path d="m512 256c0 68.378906-26.628906 132.667969-74.980469 181.019531-48.351562 48.351563-112.640625 74.980469-181.019531 74.980469h-1c-68.339844 0-132.464844-26.644531-180.5625-75.023438-48-48.285156-74.4375-112.554687-74.4375-180.976562h40c0 119.101562 96.449219 216 215 216h1c119.101562 0 216-96.898438 216-216s-96.898438-216-216-216c-59.25 0-115.058594 24.152344-155.421875 66h39.421875v40h-110v-110h40v44.078125c47.964844-50.746094 114.894531-80.078125 186-80.078125 68.378906 0 132.667969 26.628906 181.019531 74.980469 48.351563 48.351562 74.980469 112.640625 74.980469 181.019531zm-311.464844 5.679688c-12.742187-13.890626-20.535156-32.390626-20.535156-52.679688 0-43.011719 34.992188-78 78-78s78 34.988281 78 78c0 20.289062-7.792969 38.789062-20.535156 52.679688 37.230468 20.394531 62.535156 59.957031 62.535156 105.320312h-40c0-44.113281-35.886719-80-80-80s-80 35.886719-80 80h-40c0-45.363281 25.304688-84.925781 62.535156-105.320312zm57.464844-14.679688c20.953125 0 38-17.046875 38-38s-17.046875-38-38-38-38 17.046875-38 38 17.046875 38 38 38zm0 0"/></svg>