<?xml version="1.0"?>
<svg xmlns="http://www.w3.org/2000/svg" viewBox="0 0 64 64" width="512" height="512"><g id="Computer"><path d="M57,2H7A5.006,5.006,0,0,0,2,7V45a5.006,5.006,0,0,0,5,5H23.557l-2.25,6H19a3,3,0,0,0-3,3v2a1,1,0,0,0,1,1H47a1,1,0,0,0,1-1V59a3,3,0,0,0-3-3H42.693l-2.25-6H57a5.006,5.006,0,0,0,5-5V7A5.006,5.006,0,0,0,57,2ZM7,4H57a3,3,0,0,1,3,3V38H4V7A3,3,0,0,1,7,4ZM46,59v1H18V59a1,1,0,0,1,1-1H45A1,1,0,0,1,46,59Zm-5.443-3H23.443l2.25-6H38.307ZM57,48H7a3,3,0,0,1-3-3V40H60v5A3,3,0,0,1,57,48Z"/><path d="M32,41a3,3,0,1,0,3,3A3,3,0,0,0,32,41Zm0,4a1,1,0,1,1,1-1A1,1,0,0,1,32,45Z"/></g></svg>
