<svg id="Glyph" height="512" viewBox="0 0 512 512" width="512" xmlns="http://www.w3.org/2000/svg"><path d="m336 88v-56h-232a24.028 24.028 0 0 0 -24 24v400a24.028 24.028 0 0 0 24 24h304a24.028 24.028 0 0 0 24-24v-328h-56a40.045 40.045 0 0 1 -40-40zm-144 192a24 24 0 1 1 24-24 24.028 24.028 0 0 1 -24 24zm64 0a24 24 0 1 1 24-24 24.028 24.028 0 0 1 -24 24zm64 0a24 24 0 1 1 24-24 24.028 24.028 0 0 1 -24 24zm-56-24a8 8 0 1 1 -8-8 8.009 8.009 0 0 1 8 8zm64 0a8 8 0 1 1 -8-8 8.009 8.009 0 0 1 8 8zm24-168v-44.687l68.687 68.687h-44.687a24.028 24.028 0 0 1 -24-24zm-152 168a8 8 0 1 1 -8-8 8.009 8.009 0 0 1 8 8z"/></svg>