<?xml version="1.0" encoding="utf-8"?>
<!-- Svg Vector Icons : http://www.onlinewebfonts.com/icon -->
<!DOCTYPE svg PUBLIC "-//W3C//DTD SVG 1.1//EN" "http://www.w3.org/Graphics/SVG/1.1/DTD/svg11.dtd">
<svg version="1.1" xmlns="http://www.w3.org/2000/svg" xmlns:xlink="http://www.w3.org/1999/xlink" x="0px" y="0px" viewBox="0 0 1000 1000" enable-background="new 0 0 1000 1000" xml:space="preserve">
<g><path d="M420,694.8c17.5,1.2,35.3-4.1,49.6-16l4.8-1.6L322.7,524.1l-1.5,4.9c-11.8,14.4-17.1,32.4-15.9,50.1l-53.8,170.1L420,694.8L420,694.8z M969.4,74.6l-49.6-50.1c-27.4-27.7-71.9-27.7-99.3,0l-48.1,48.5l148.9,150.3l48.1-48.5C996.9,147.2,996.9,102.3,969.4,74.6L969.4,74.6z M870.2,275L721.2,124.7L375.3,473.9l148.9,150.3L870.2,275L870.2,275z M78,925.4V143.8h493.6V75.1H80.2C41.4,75.1,10,106.8,10,146v779.4c0,39.1,31.4,70.9,70.2,70.9h772.2c38.8,0,70.2-31.7,70.2-70.9v-496h-70.2v496H78z"/></g>
</svg>