<?xml version="1.0" encoding="utf-8"?>
<!DOCTYPE svg PUBLIC "-//W3C//DTD SVG 1.1//EN" "http://www.w3.org/Graphics/SVG/1.1/DTD/svg11.dtd">
<svg version="1.1" xmlns="http://www.w3.org/2000/svg" x="0px" y="0px" viewBox="0 0 1000 1000" enable-background="new 0 0 1000 1000" xml:space="preserve">
<g><path d="M328.5,861.4c-0.8-0.6-1.5-1.2-2.3-1.9C327,860.2,327.7,860.8,328.5,861.4z"/><path d="M591.9,101.9c0-16.9-13.7-30.6-30.6-30.6H438.7c-16.9,0-30.6,13.7-30.6,30.6v30.6c0,0,154.1,0,183.8,0V101.9z"/><path d="M318.1,847.4c-0.5-1.4-0.9-2.9-1.2-4.4C317.1,844.5,317.5,846,318.1,847.4z"/><path d="M324.2,857.5c0.7,0.7,1.4,1.4,2.1,2.1C325.5,858.9,324.8,858.2,324.2,857.5z"/><path d="M323.2,856.4c-1.6-1.9-2.9-4-4-6.2C320.3,852.4,321.6,854.5,323.2,856.4z"/><path d="M316.2,836.9V469.4c0-16.9,13.7-30.6,30.6-30.6l0,0c-16.9,0-30.6,13.7-30.6,30.6V836.9c0,2.1,0.2,4.2,0.6,6.2C316.4,841.1,316.2,839,316.2,836.9z"/><path d="M346.8,867.5L346.8,867.5c-1.1,0-2.1-0.1-3.1-0.2C344.7,867.4,345.8,867.5,346.8,867.5z"/><path d="M330.9,863.1c-0.8-0.5-1.7-1.1-2.4-1.6C329.3,862,330.1,862.6,330.9,863.1z"/><path d="M339.2,866.5c-1-0.3-1.9-0.6-2.9-0.9C337.2,866,338.2,866.3,339.2,866.5z"/><path d="M343.7,867.3c-1-0.1-2-0.3-3-0.5C341.7,867.1,342.7,867.2,343.7,867.3z"/><path d="M174.2,200.7c1.5-1.2,3.1-2.4,4.9-3.3C177.3,198.4,175.7,199.5,174.2,200.7z"/><path d="M181.7,196.1c0.9-0.4,1.9-0.7,2.8-1C183.6,195.4,182.7,195.8,181.7,196.1z"/><path d="M186,194.7c1-0.3,2-0.5,3-0.6C188,194.3,187,194.5,186,194.7z"/><path d="M167.5,208.5c0.5-0.8,1.1-1.7,1.7-2.4C168.5,206.8,168,207.6,167.5,208.5z"/><path d="M170,204.9c0.6-0.8,1.3-1.5,2-2.2C171.3,203.4,170.6,204.1,170,204.9z"/><path d="M837,132.5H653.2V71.3c0-33.8-27.4-61.3-61.3-61.3H408.1c-33.8,0-61.3,27.4-61.3,61.3v61.2H163c-33.8,0-61.3,27.4-61.3,61.2V255c0,33.8,27.4,61.3,61.3,61.3v551.2c0,67.7,54.9,122.5,122.5,122.5h428.9c67.7,0,122.5-54.8,122.5-122.5V316.2c33.8,0,61.3-27.4,61.3-61.3v-61.3C898.2,159.9,870.8,132.5,837,132.5z M408.1,101.9c0-16.9,13.7-30.6,30.6-30.6h122.5c16.9,0,30.6,13.7,30.6,30.6v30.6c-29.7,0-183.8,0-183.8,0V101.9z M775.7,867.5c0,33.8-27.4,61.3-61.3,61.3l0,0l-428.9,0c-7.4,0-14.5-1.3-21.1-3.7c-1.9-0.7-3.7-1.5-5.5-2.3c-1.8-0.9-3.5-1.8-5.2-2.8c-1.7-1-3.3-2.1-4.9-3.3c-3.1-2.4-6.1-5-8.7-7.9c-1.3-1.5-2.6-3-3.7-4.5c-6.5-8.7-10.7-19.1-11.9-30.4c-0.2-2.1-0.3-4.1-0.3-6.3l0,0V316.2c42.1,0,516.9,0,551.4,0V867.5L775.7,867.5z M806.3,255H193.7c-1.6,0-3.1-0.1-4.7-0.4c-1-0.2-2-0.4-3-0.6c-0.5-0.1-1-0.3-1.5-0.4c-1-0.3-1.9-0.6-2.8-1c-0.9-0.4-1.8-0.8-2.7-1.3c-1.7-0.9-3.4-2-4.9-3.3c-0.8-0.6-1.5-1.3-2.2-2c-0.7-0.7-1.4-1.4-2-2.2c-0.3-0.4-0.6-0.8-0.9-1.2c-0.6-0.8-1.1-1.6-1.7-2.4c-2.8-4.6-4.4-10.1-4.4-15.9c0-5.8,1.6-11.3,4.4-15.9c0.5-0.8,1.1-1.7,1.7-2.4c0.3-0.4,0.6-0.8,0.9-1.2c0.6-0.8,1.3-1.5,2-2.2c0.7-0.7,1.4-1.4,2.2-2c1.5-1.2,3.1-2.4,4.9-3.3c0.9-0.5,1.8-0.9,2.7-1.3c0.9-0.4,1.9-0.7,2.8-1c0.5-0.2,1-0.3,1.5-0.4c1-0.3,2-0.5,3-0.6c1.5-0.2,3.1-0.4,4.7-0.4h612.7c16.9,0,30.6,13.7,30.6,30.6C837,241.3,823.3,255,806.3,255z"/><path d="M240.2,908.7c2.6,2.9,5.5,5.5,8.7,7.9C245.8,914.2,242.9,911.6,240.2,908.7z"/><path d="M253.8,919.9c-1.7-1-3.3-2.1-4.9-3.3C250.5,917.8,252.1,918.9,253.8,919.9z"/><path d="M714.4,928.7L714.4,928.7c33.8,0,61.3-27.4,61.3-61.3l0,0C775.7,901.3,748.3,928.7,714.4,928.7z"/><path d="M224.3,867.5c0,2.1,0.1,4.2,0.3,6.3C224.4,871.7,224.3,869.6,224.3,867.5L224.3,867.5z"/><path d="M264.5,925c-1.9-0.7-3.7-1.5-5.5-2.3C260.8,923.6,262.6,924.3,264.5,925z"/><path d="M236.5,904.1c-6.5-8.7-10.7-19.1-11.9-30.4C225.8,885.1,230,895.5,236.5,904.1z"/><path d="M240.2,908.7c-1.3-1.5-2.6-3-3.7-4.5C237.6,905.7,238.9,907.2,240.2,908.7z"/><path d="M172,246c-0.7-0.7-1.4-1.4-2-2.2C170.6,244.6,171.3,245.3,172,246z"/><path d="M179.1,251.3c-1.7-0.9-3.4-2-4.9-3.3C175.7,249.3,177.3,250.4,179.1,251.3z"/><path d="M189,254.6c-1-0.2-2-0.4-3-0.6C187,254.3,188,254.5,189,254.6z"/><path d="M169.1,242.7c-0.6-0.8-1.1-1.6-1.7-2.4C168,241.1,168.5,241.9,169.1,242.7z"/><path d="M184.6,253.6c-1-0.3-1.9-0.6-2.8-1C182.7,253,183.6,253.3,184.6,253.6z"/><path d="M625.6,850.1c1.1,2.2,2.4,4.3,4,6.2c0.6,0.8,1.3,1.5,2,2.2c0.7,0.7,1.4,1.4,2.2,2c0.8,0.6,1.5,1.2,2.4,1.8c0.8,0.6,1.7,1.1,2.5,1.5c0.9,0.5,1.8,0.9,2.7,1.3c0.9,0.4,1.9,0.7,2.8,1c1.4,0.4,2.9,0.8,4.4,1c1,0.2,2,0.3,3.1,0.3c0.5,0,1,0,1.6,0c1.1,0,2.1-0.1,3.1-0.2c1-0.1,2-0.3,3-0.5c3-0.6,5.8-1.7,8.4-3.1c1.3-0.7,2.5-1.5,3.7-2.4c1.2-0.9,2.3-1.8,3.3-2.9c0.7-0.7,1.4-1.4,2-2.2c4.4-5.3,7-12.1,7-19.5V469.4c0-16.9-13.7-30.6-30.6-30.6c-16.9,0-30.6,13.7-30.6,30.6v367.5c0,3.7,0.7,7.2,1.9,10.5C624.7,848.3,625.1,849.3,625.6,850.1z"/><path d="M659.3,866.9c-1,0.2-2,0.4-3,0.5C657.3,867.2,658.3,867.1,659.3,866.9z"/><path d="M644.1,866.1c-1-0.3-1.9-0.6-2.8-1C642.2,865.5,643.1,865.8,644.1,866.1z"/><path d="M671.5,861.4c-1.2,0.9-2.4,1.7-3.7,2.4C669.1,863.1,670.3,862.3,671.5,861.4z"/><path d="M651.6,867.5c-1-0.1-2.1-0.2-3.1-0.3C649.5,867.3,650.5,867.4,651.6,867.5z"/><path d="M676.8,856.4c-0.6,0.8-1.3,1.5-2,2.2C675.5,857.8,676.2,857.1,676.8,856.4z"/><path d="M674.8,858.5c-1,1-2.2,2-3.3,2.9C672.7,860.5,673.8,859.6,674.8,858.5z"/><path d="M648.5,867.1c-1.5-0.2-3-0.6-4.4-1C645.5,866.6,647,866.9,648.5,867.1z"/><path d="M625.6,850.1c-0.4-0.9-0.8-1.8-1.2-2.7C624.7,848.3,625.1,849.3,625.6,850.1z"/><path d="M631.5,858.5c-0.7-0.7-1.4-1.4-2-2.2C630.2,857.1,630.8,857.8,631.5,858.5z"/><path d="M636,862.3c-0.8-0.5-1.6-1.1-2.4-1.8C634.4,861.1,635.2,861.7,636,862.3z"/><path d="M641.2,865.1c-0.9-0.4-1.8-0.8-2.7-1.3C639.4,864.3,640.3,864.7,641.2,865.1z"/><path d="M638.6,863.8c-0.9-0.5-1.7-1-2.5-1.5C636.9,862.8,637.7,863.3,638.6,863.8z"/><path d="M316.2,469.4v367.5c0,2.1,0.2,4.2,0.6,6.2c0.3,1.5,0.7,2.9,1.2,4.4c0.3,0.9,0.7,1.9,1.2,2.7c1.1,2.2,2.4,4.3,4,6.2c0.3,0.4,0.6,0.7,1,1.1c0.7,0.7,1.4,1.4,2.1,2.1c0.7,0.7,1.5,1.3,2.3,1.9c0.8,0.6,1.6,1.1,2.4,1.6c1.7,1,3.5,1.9,5.4,2.6c0.9,0.3,1.9,0.6,2.9,0.9c0.5,0.1,1,0.2,1.5,0.3c1,0.2,2,0.4,3,0.5c1,0.1,2.1,0.2,3.1,0.2c16.9,0,30.6-13.7,30.6-30.6V469.4c0-16.9-13.7-30.6-30.6-30.6C329.9,438.7,316.2,452.5,316.2,469.4z"/><path d="M377.5,469.4v367.5c0,16.9-13.7,30.6-30.6,30.6l0,0c16.9,0,30.6-13.7,30.6-30.6V469.4c0-16.9-13.7-30.6-30.6-30.6l0,0C363.8,438.7,377.5,452.5,377.5,469.4z"/><path d="M500,867.5c16.9,0,30.6-13.7,30.6-30.6V469.4c0-16.9-13.7-30.6-30.6-30.6c-4.2,0-8.3,0.9-11.9,2.4c-0.9,0.4-1.8,0.8-2.7,1.3c-0.4,0.2-0.9,0.5-1.3,0.7c-0.8,0.5-1.7,1.1-2.4,1.7c-1.2,0.9-2.3,1.8-3.3,2.9c-0.7,0.7-1.4,1.4-2,2.2c-0.9,1.1-1.8,2.3-2.6,3.6c-1.3,2.1-2.3,4.4-3.1,6.8c-0.4,1.4-0.8,2.9-1,4.4c-0.2,1-0.3,2-0.3,3.1c0,0.5,0,1,0,1.6v367.5C469.4,853.8,483.1,867.5,500,867.5z"/><path d="M476.4,449.9c0.6-0.8,1.3-1.5,2-2.2C477.6,448.4,477,449.1,476.4,449.9z"/><path d="M481.7,444.8c0.8-0.6,1.6-1.1,2.4-1.7C483.3,443.7,482.5,444.2,481.7,444.8z"/><path d="M469.7,464.7c0.2-1.5,0.6-3,1-4.4C470.3,461.7,470,463.2,469.7,464.7z"/><path d="M469.4,467.8c0.1-1,0.2-2.1,0.3-3.1C469.6,465.7,469.5,466.8,469.4,467.8z"/><path d="M473.8,453.5c0.8-1.3,1.6-2.5,2.6-3.6C475.4,451,474.6,452.2,473.8,453.5z"/><path d="M485.4,442.4c0.9-0.5,1.8-0.9,2.7-1.3C487.2,441.5,486.3,442,485.4,442.4z"/></g>
</svg>