<svg xmlns="http://www.w3.org/2000/svg" xmlns:xlink="http://www.w3.org/1999/xlink" version="1.1" x="0px" y="0px" viewBox="0 0 32 40" style="enable-background:new 0 0 32 32;" xml:space="preserve"><style type="text/css">
	.st0{display:none;}
</style><g><g><path d="M16,3C8.8,3,3,8.8,3,16s5.8,13,13,13s13-5.8,13-13S23.2,3,16,3z M16,27C9.9,27,5,22.1,5,16S9.9,5,16,5s11,4.9,11,11    S22.1,27,16,27z"/><path d="M15.5,20.5c0.1,0.1,0.3,0.2,0.5,0.2s0.3-0.1,0.5-0.2c0.1-0.1,0.2-0.3,0.2-0.6l0.7-12.4c0-0.4-0.1-0.8-0.3-1    c-0.3-0.2-0.6-0.4-1-0.4c-0.4,0-0.8,0.1-1,0.4c-0.3,0.2-0.4,0.6-0.3,1L15.3,20C15.3,20.2,15.4,20.4,15.5,20.5z"/><path d="M16,22.7c-0.4,0-0.8,0.1-1.1,0.4c-0.3,0.3-0.4,0.7-0.4,1.1c0,0.5,0.1,0.8,0.4,1.1c0.3,0.3,0.7,0.4,1.1,0.4    c0.4,0,0.8-0.1,1.1-0.4c0.3-0.3,0.4-0.7,0.4-1.1c0-0.5-0.1-0.8-0.4-1.1C16.8,22.8,16.4,22.7,16,22.7z"/></g></g><text x="0" y="47" fill="#000000" font-size="5px" font-weight="bold" font-family="'Helvetica Neue', Helvetica, Arial-Unicode, Arial, Sans-serif">Created by bingbingar</text><text x="0" y="52" fill="#000000" font-size="5px" font-weight="bold" font-family="'Helvetica Neue', Helvetica, Arial-Unicode, Arial, Sans-serif">from the Noun Project</text></svg>