<?xml version="1.0" standalone="no"?>
<!DOCTYPE svg PUBLIC "-//W3C//DTD SVG 20010904//EN"
 "http://www.w3.org/TR/2001/REC-SVG-20010904/DTD/svg10.dtd">
<svg version="1.0" xmlns="http://www.w3.org/2000/svg"
 width="1483.000000pt" height="213.000000pt" viewBox="0 0 1483.000000 213.000000"
 preserveAspectRatio="xMidYMid meet">
<metadata>
Created by potrace 1.16, written by Peter Selinger 2001-2019
</metadata>
<g transform="translate(0.000000,213.000000) scale(0.100000,-0.100000)"
fill="#000000" stroke="none">
<path d="M809 1729 c-11 -11 -40 -61 -65 -112 -113 -231 -112 -335 8 -513 43
-63 87 -113 294 -332 17 -19 41 -52 53 -75 14 -28 16 -33 4 -17 -68 94 -193
185 -298 215 -143 41 -276 14 -368 -74 -81 -76 -99 -147 -65 -252 60 -190 239
-226 346 -69 29 44 28 50 -11 43 -45 -7 -77 30 -72 84 5 55 42 85 108 91 77 6
149 -20 209 -76 47 -43 48 -45 28 -59 -21 -15 -27 -57 -11 -82 5 -8 23 -14 40
-13 28 1 31 -2 32 -31 2 -52 -1 -61 -27 -84 -30 -27 -109 -32 -140 -8 -26 20
-34 19 -34 -6 0 -111 107 -177 207 -127 22 11 30 12 27 3 -4 -8 11 -14 47 -19
29 -4 68 -14 88 -22 53 -22 171 -105 171 -121 0 -7 10 -13 22 -13 12 0 35 -12
51 -27 l28 -28 205 -3 c170 -3 210 0 236 12 17 9 35 16 39 16 19 0 109 99 109
119 0 11 6 21 13 21 22 0 47 -39 47 -75 0 -29 4 -35 22 -35 12 0 35 -12 51
-27 l28 -28 1424 0 c1126 0 1427 3 1437 13 6 6 19 12 28 12 9 0 29 13 45 30
28 29 32 30 113 30 l85 0 48 -45 47 -44 186 0 c148 0 189 3 200 15 8 7 22 14
31 14 9 0 33 18 53 41 l36 40 50 -53 49 -53 360 0 c279 0 361 3 365 13 2 6 12
12 22 12 9 0 23 7 30 15 18 22 272 22 290 0 7 -8 20 -15 29 -15 9 0 23 -6 30
-12 9 -10 61 -13 191 -13 l178 0 24 28 c13 15 31 27 40 27 8 0 21 7 28 15 16
19 74 19 90 0 8 -10 31 -15 70 -15 39 0 62 -5 70 -15 8 -10 31 -15 69 -15 32
0 62 -5 69 -13 19 -18 2223 -18 2230 1 2 6 12 12 23 12 16 0 89 62 89 76 0 14
46 104 52 104 5 0 8 -14 8 -30 0 -18 6 -33 15 -36 10 -4 15 -20 15 -45 0 -33
3 -39 22 -39 12 0 35 -12 51 -27 l28 -28 221 0 c168 0 222 3 226 13 2 6 11 12
21 12 25 0 121 92 121 117 0 11 7 24 15 27 9 3 15 14 13 23 -2 10 4 19 15 21
13 3 17 -3 17 -22 0 -14 5 -26 11 -26 6 0 22 -14 36 -30 13 -17 33 -30 43 -30
10 0 21 -4 24 -9 4 -5 29 -12 56 -16 27 -4 52 -11 56 -16 3 -5 49 -9 103 -9
75 0 101 -4 111 -15 7 -8 19 -15 27 -15 8 0 21 -7 29 -15 12 -12 47 -14 186
-13 l171 1 32 29 c18 15 40 28 49 28 9 0 19 7 22 15 8 19 48 19 68 0 9 -10 34
-15 69 -15 36 0 59 -5 67 -15 8 -10 31 -15 69 -15 32 0 62 -5 69 -12 10 -10
134 -14 540 -15 448 -2 532 0 556 12 16 8 38 15 51 15 12 0 28 7 35 15 17 20
113 20 130 0 7 -8 21 -15 30 -15 10 0 20 -6 22 -13 4 -9 57 -13 211 -15 173
-3 211 -1 238 12 18 9 37 16 43 16 20 1 116 98 111 113 -3 8 7 23 25 37 16 13
30 32 30 44 0 12 14 32 31 45 16 13 28 30 25 37 -3 8 8 24 24 36 18 13 30 31
30 44 0 12 11 31 25 42 14 11 25 28 25 38 0 9 14 30 31 45 17 15 28 32 25 37
-3 5 1 15 9 22 8 7 15 20 15 30 0 10 7 20 15 24 8 3 15 15 15 27 0 12 8 28 18
35 15 11 17 34 20 176 l3 163 -39 17 c-32 14 -70 17 -194 17 -191 -1 -198 -1
-392 0 -157 1 -159 1 -219 -29 -33 -16 -66 -30 -73 -30 -6 0 -14 -7 -18 -15
-7 -19 -26 -20 -26 -2 0 16 -35 49 -69 67 -17 9 -112 12 -357 12 -293 -1 -337
-3 -362 -17 -26 -16 -32 -16 -77 0 -39 13 -86 16 -232 15 -190 0 -246 9 -259
45 -5 13 -33 15 -185 15 -101 0 -179 -4 -179 -9 0 -5 -19 -18 -42 -29 -77 -35
-254 -23 -281 19 -11 17 -26 19 -189 19 -98 0 -178 -4 -178 -8 0 -4 -15 -17
-32 -27 -31 -19 -55 -20 -353 -22 -176 -1 -334 -5 -351 -8 -17 -3 -50 -23 -74
-45 -24 -22 -45 -40 -46 -40 -11 0 -54 -50 -54 -63 0 -9 -4 -19 -10 -22 -5 -3
-10 -32 -10 -64 0 -39 -5 -63 -15 -71 -12 -10 -15 -1 -17 62 -3 62 -6 73 -20
72 -14 -1 -18 6 -18 35 -1 53 -29 103 -70 123 -27 14 -60 18 -148 18 -93 0
-120 4 -157 21 -25 12 -45 25 -45 30 0 5 -79 9 -175 9 -108 0 -175 -4 -175
-10 0 -5 -18 -19 -40 -30 -34 -17 -58 -20 -158 -19 -64 0 -125 -2 -134 -6 -12
-5 -29 4 -54 29 l-37 36 -178 0 c-109 0 -180 -4 -184 -10 -20 -33 -73 -45
-225 -52 -193 -10 -173 -10 -430 -1 -177 7 -221 11 -247 26 -18 10 -33 22 -33
27 0 6 -67 10 -173 10 l-173 0 -31 -30 c-29 -29 -33 -29 -124 -29 -113 0 -181
14 -205 40 -16 17 -32 19 -186 19 -155 0 -171 -2 -190 -20 -31 -28 -80 -40
-171 -40 -76 0 -144 21 -162 50 -4 6 -70 10 -171 10 l-164 0 -69 -52 c-38 -28
-75 -62 -82 -75 -17 -33 -47 -29 -94 13 -57 51 -77 56 -195 55 -146 -3 -204 6
-235 35 -25 23 -30 24 -204 24 -152 0 -180 -2 -185 -15 -14 -37 -68 -45 -309
-47 -127 0 -254 -1 -282 -1 -27 -1 -131 1 -231 2 l-181 3 -31 29 -31 29 -180
0 c-100 0 -181 -4 -181 -8 0 -5 -20 -18 -44 -30 l-44 -22 -855 0 -856 1 -16
50 c-21 61 -55 103 -109 132 -64 34 -191 31 -269 -5 -102 -48 -203 -174 -238
-298 -7 -25 -14 -52 -17 -60 -2 -8 -5 -54 -6 -102 0 -48 -4 -80 -8 -70 -10 26
-9 177 2 267 24 196 17 383 -16 476 -31 86 -124 166 -274 236 -132 62 -147 66
-171 42z m241 -106 c191 -113 218 -178 204 -488 -4 -99 -8 -244 -8 -321 l-1
-142 -45 -14 -45 -15 -34 58 c-19 32 -90 118 -159 191 -150 161 -190 212 -242
312 -48 92 -52 146 -19 252 20 64 82 199 116 251 l14 22 72 -31 c40 -16 106
-50 147 -75z m5442 -666 c3 -21 7 -22 163 -25 88 -1 163 -6 167 -10 4 -4 1
-27 -6 -52 l-13 -45 -164 -3 c-90 -1 -167 -6 -171 -10 -3 -4 -18 -65 -32 -137
-14 -71 -30 -152 -36 -178 -20 -94 -18 -97 50 -97 73 0 69 -9 73 195 l2 150
138 3 c153 3 155 2 143 -64 -5 -23 -15 -39 -30 -46 -22 -9 -24 -17 -28 -122
-6 -129 -22 -176 -70 -206 -31 -19 -50 -20 -285 -20 l-253 0 0 30 c0 17 7 59
15 93 17 73 75 372 75 387 0 6 -12 15 -26 20 -22 9 -25 14 -19 43 12 61 16 67
41 67 16 0 28 8 36 25 13 30 18 31 134 27 87 -3 93 -5 96 -25z m700 -1 c3 -20
9 -21 148 -26 154 -5 188 -15 210 -55 7 -13 10 -40 8 -61 -5 -41 -70 -369 -91
-464 l-13 -55 -107 -3 c-121 -3 -114 -9 -92 85 19 83 15 93 -46 93 l-49 0 0
38 c0 56 16 71 79 74 l55 3 13 59 c7 32 14 83 15 115 l3 56 -78 3 c-73 3 -78
1 -86 -20 -5 -13 -25 -106 -45 -208 -20 -102 -41 -189 -46 -194 -11 -11 -199
-11 -211 1 -4 4 6 76 22 158 30 151 34 169 63 324 9 47 19 88 23 92 8 8 175
17 205 10 9 -1 18 -13 20 -25z m4560 1 c3 -21 8 -22 153 -27 218 -7 231 -19
200 -189 -9 -53 -20 -109 -25 -126 -4 -16 -16 -75 -25 -130 -10 -55 -23 -120
-30 -145 l-12 -45 -107 -3 c-71 -2 -106 1 -106 8 0 6 7 40 16 75 22 85 17 95
-46 95 -48 0 -50 1 -49 28 2 68 10 77 74 82 l60 5 21 105 c14 69 18 109 11
118 -11 14 -153 17 -161 4 -5 -8 -70 -318 -83 -394 -3 -15 -11 -29 -19 -32 -8
-3 -57 -3 -110 1 l-97 6 7 60 c3 33 10 76 15 96 12 45 34 152 62 305 17 89 27
120 40 125 10 3 60 5 113 3 89 -3 95 -5 98 -25z m690 0 c3 -21 10 -22 110 -27
82 -4 110 -9 125 -23 19 -16 21 -16 39 4 17 19 28 20 111 17 119 -4 146 -21
151 -94 2 -27 -1 -67 -7 -89 -6 -22 -24 -116 -42 -210 -17 -93 -36 -187 -41
-207 l-9 -38 -109 0 c-128 0 -120 -12 -90 130 61 286 76 378 61 393 -25 25
-45 -7 -63 -99 -22 -109 -43 -218 -61 -304 l-13 -65 -104 -3 c-57 -1 -107 1
-111 5 -7 7 37 256 72 405 11 50 7 68 -16 68 -23 0 -43 -40 -54 -105 -19 -117
-60 -298 -69 -307 -5 -5 -53 -7 -108 -6 l-99 3 3 45 c2 25 24 153 51 285 l48
240 99 5 c117 6 122 5 126 -23z m-8397 -22 c12 -22 42 -89 68 -150 65 -154 72
-153 103 23 23 134 9 122 134 122 60 0 111 -3 114 -8 2 -4 0 -25 -5 -47 -6
-22 -30 -142 -54 -268 -25 -125 -52 -238 -61 -251 -27 -42 -94 -66 -182 -66
l-78 0 -48 143 c-27 78 -55 155 -63 170 -15 30 -33 28 -33 -5 0 -20 -45 -252
-56 -291 -5 -16 -17 -17 -117 -15 -75 2 -111 7 -110 14 2 9 13 68 46 234 3 14
23 117 46 229 23 112 41 205 41 208 0 2 53 2 117 1 l118 -3 20 -40z m1415 38
c0 -4 -12 -63 -26 -131 -19 -90 -23 -127 -15 -136 8 -9 33 -12 78 -11 79 3 88
11 104 101 5 32 15 76 20 97 l10 37 104 0 c57 0 106 -4 110 -9 3 -5 -8 -79
-25 -163 -16 -84 -37 -189 -45 -233 -9 -44 -20 -98 -25 -120 -5 -22 -12 -57
-15 -78 l-6 -38 -112 3 c-93 3 -112 6 -110 18 1 8 9 53 18 100 9 47 19 104 22
128 l6 43 -84 -3 -84 -3 -15 -75 c-8 -41 -19 -81 -23 -87 -6 -9 -40 -13 -114
-13 l-106 0 7 43 c20 136 20 137 -2 137 -30 0 -34 13 -21 64 8 35 17 47 38 54
29 10 30 15 67 195 l19 87 112 0 c62 0 113 -3 113 -7z m2448 -15 c-3 -22 0
-23 103 -28 77 -4 112 -10 132 -22 25 -17 27 -17 37 2 9 18 21 20 96 20 65 0
94 -5 124 -20 52 -26 58 -53 37 -160 -10 -47 -33 -165 -52 -263 -19 -99 -38
-183 -41 -188 -7 -11 -211 -12 -218 -1 -3 4 2 35 9 68 32 136 86 428 81 441
-6 15 -25 17 -44 5 -7 -5 -17 -31 -21 -58 -5 -27 -18 -96 -30 -154 -11 -58
-26 -132 -32 -165 -19 -98 -16 -95 -129 -95 -56 0 -102 4 -105 10 -4 6 12 107
36 225 23 117 39 221 35 230 -3 9 -14 15 -23 13 -24 -5 -36 -43 -73 -243 -20
-107 -31 -149 -42 -162 -8 -10 -35 -13 -107 -11 l-96 3 2 50 c2 48 89 500 99
517 3 4 55 8 115 8 109 0 110 0 107 -22z m1299 10 c5 -7 36 -74 68 -148 32
-74 62 -139 67 -144 16 -20 29 12 51 130 l23 119 112 3 c131 3 123 16 92 -141
-11 -56 -27 -138 -35 -182 -9 -44 -20 -100 -25 -125 -5 -25 -12 -57 -15 -72
-7 -37 -51 -86 -92 -103 -21 -9 -68 -15 -114 -15 l-78 0 -10 33 c-13 45 -100
287 -107 298 -11 18 -22 -1 -29 -48 -3 -27 -10 -64 -15 -83 -5 -19 -14 -64
-20 -100 -20 -111 -7 -101 -133 -98 -105 3 -112 4 -109 23 3 27 14 82 52 265
18 85 34 166 37 180 5 27 31 161 39 198 4 21 8 22 118 22 79 0 116 -4 123 -12z
m773 -13 l0 -25 166 0 166 0 -7 -47 c-4 -27 -9 -51 -12 -55 -2 -5 -78 -8 -168
-8 -107 0 -166 -4 -171 -11 -11 -18 -82 -383 -77 -396 3 -9 26 -13 64 -13 l59
0 0 159 c0 88 3 166 6 175 5 14 28 16 144 16 77 0 141 -4 145 -9 3 -6 3 -28
-1 -50 -5 -31 -13 -44 -33 -54 -24 -11 -26 -17 -23 -63 5 -71 -15 -200 -34
-230 -34 -51 -53 -54 -323 -54 -137 0 -252 3 -254 8 -3 4 8 72 24 152 73 365
71 346 42 368 -20 15 -22 22 -15 62 7 40 11 45 35 48 18 2 32 12 39 28 11 23
15 24 120 24 l108 0 0 -25z m-7754 -38 c2 -7 1 -31 -4 -52 l-8 -40 -139 -5
c-136 -5 -140 -6 -152 -30 -7 -14 -12 -41 -11 -60 l3 -35 127 0 c73 0 131 -4
137 -10 7 -7 6 -25 -3 -55 l-13 -45 -141 -3 -142 -3 -5 -27 c-4 -15 -10 -45
-15 -67 -5 -22 -11 -55 -14 -72 -8 -47 -33 -81 -77 -104 -32 -16 -59 -19 -164
-19 l-127 0 7 32 c15 69 22 78 60 78 61 0 92 51 99 165 1 6 -21 12 -49 15
l-50 5 3 45 c4 52 25 74 64 66 41 -8 68 20 71 74 l2 45 -50 5 c-46 5 -50 7
-48 30 1 14 6 37 12 53 l11 27 305 0 c241 0 307 -3 311 -13z m748 5 c3 -5 -10
-82 -28 -171 -36 -177 -43 -192 -112 -216 -46 -16 -46 -19 -11 -130 14 -44 26
-87 28 -95 3 -13 -14 -15 -110 -15 l-114 0 -13 45 c-7 25 -22 74 -32 110 -11
35 -27 69 -36 75 -27 17 -50 -7 -58 -61 -3 -27 -13 -76 -20 -109 l-15 -60
-111 -3 c-62 -1 -112 1 -112 5 0 5 11 62 24 128 14 66 33 164 42 218 14 72 23
101 36 108 10 5 60 8 111 7 l92 -3 0 -55 0 -55 77 -3 c88 -3 86 -5 108 90 21
91 28 88 -189 88 -205 0 -206 0 -189 55 6 17 11 36 14 43 3 9 73 12 308 12
168 0 307 -4 310 -8z m668 -37 c-5 -63 -10 -65 -153 -65 -122 0 -129 -1 -143
-22 -20 -34 -28 -78 -16 -93 8 -9 40 -12 123 -9 148 5 150 4 141 -54 -4 -26
-9 -49 -11 -52 -3 -3 -68 -7 -145 -10 l-141 -5 -13 -50 c-30 -113 -18 -123
136 -127 127 -3 129 -4 115 -74 l-6 -34 -205 0 c-224 0 -258 7 -285 56 -11 21
-10 37 4 107 26 124 26 125 -30 129 l-48 3 3 44 c4 61 17 74 63 67 45 -7 65 9
75 59 10 54 1 65 -51 65 -43 0 -45 1 -45 29 0 16 4 41 10 55 l10 26 307 -2
308 -3 -3 -40z m1461 10 c-6 -80 4 -75 -168 -75 -176 0 -165 6 -184 -95 -17
-85 -28 -139 -47 -222 -9 -40 -14 -80 -10 -88 4 -12 34 -15 153 -17 l148 -3
-3 -40 c-5 -69 10 -65 -234 -65 -203 0 -226 2 -255 19 -17 11 -34 30 -38 42
-7 22 54 368 82 466 30 102 62 112 343 110 l215 -2 -2 -30z m3721 27 c2 -4 1
-25 -4 -47 -4 -22 -18 -92 -31 -155 -12 -63 -36 -185 -53 -270 l-31 -155 -113
-3 c-125 -3 -121 -5 -103 67 5 20 17 77 26 126 9 50 20 108 25 130 5 22 19 92
31 155 32 174 20 160 143 160 58 0 107 -3 110 -8z m2578 -27 c-7 -80 3 -75
-152 -75 -156 0 -153 1 -166 -78 l-6 -40 56 -7 c31 -4 77 -4 102 0 25 3 64 3
86 0 l39 -7 -6 -41 c-4 -23 -12 -48 -17 -54 -7 -9 -54 -13 -146 -15 l-136 -3
-21 -97 c-34 -164 -67 -188 -257 -188 l-120 0 6 38 c13 69 15 72 55 72 52 0
79 31 91 106 6 32 10 62 10 67 0 4 -19 7 -43 7 -58 0 -67 11 -53 63 13 52 22
59 64 53 48 -7 74 22 70 77 -3 42 -3 42 -46 45 -51 4 -57 15 -42 71 l11 41
312 -2 312 -3 -3 -30z m1982 27 c5 -8 -76 -431 -113 -597 l-7 -30 -112 -3
c-124 -3 -121 -5 -103 67 11 40 26 116 76 374 19 99 38 183 41 188 7 11 211
12 218 1z m350 0 c4 -7 -58 -335 -79 -414 -5 -21 -3 -29 8 -34 9 -3 77 15 153
41 84 28 141 42 146 37 12 -12 -10 -93 -31 -110 -8 -7 -29 -16 -46 -21 -16 -5
-102 -35 -190 -67 -125 -45 -176 -58 -232 -62 -80 -4 -78 -6 -64 61 17 78 83
415 96 491 15 88 12 86 129 86 58 0 107 -4 110 -8z m592 -90 c6 -51 16 -98 21
-103 10 -10 39 21 56 61 4 8 24 42 45 75 l39 60 103 3 c57 1 107 -1 111 -5 4
-4 -85 -147 -199 -318 l-207 -310 -140 0 -140 0 3 35 c6 54 18 70 57 70 27 0
40 8 70 42 19 23 38 53 42 65 6 27 6 26 -37 188 -17 66 -35 136 -39 156 -4 19
-11 41 -15 47 -16 26 7 33 112 30 l106 -3 12 -93z m-12886 -141 c0 -17 -5 -33
-10 -36 -30 -18 -408 -145 -425 -143 -12 2 -21 12 -23 25 -3 17 4 26 25 34 79
31 410 148 421 148 7 1 12 -11 12 -28z m-130 -135 c0 -6 17 -34 38 -61 l38
-50 -4 -99 c-4 -89 -2 -101 17 -127 18 -25 21 -38 15 -74 -3 -25 -8 -45 -9
-45 -2 0 -36 22 -76 50 -68 47 -121 71 -182 85 l-28 6 30 34 c35 41 46 96 38
200 l-5 73 51 19 c51 19 77 16 77 -11z"/>
</g>
</svg>
